<?xml version="1.0" encoding="UTF-8"?>
<svg xmlns="http://www.w3.org/2000/svg" width="64" height="64" viewBox="0 0 64 64" role="img" aria-labelledby="titleDesc">
  <title id="titleDesc">Developer Favicon</title>

  <!-- 배경 라운드 사각 -->
  <rect x="1" y="1" width="62" height="62" rx="10" fill="#0f172a"/>

  <!-- 노트북 -->
  <g transform="translate(8,12)">
    <!-- 본체 -->
    <rect x="0" y="10" width="48" height="24" rx="3" fill="#0ea5e9"/>
    <!-- 화면 -->
    <rect x="4" y="2" width="40" height="18" rx="2" fill="#071327"/>
    <!-- 키보드 바닥 -->
    <rect x="-2" y="34" width="52" height="4" rx="2" fill="#0b1720"/>
  </g>

  <!-- 화면 안의 코드 기호: < / > -->
  <g transform="translate(20,20)" fill="#a7f3d0">
    <path d="M2 8 L6 12 L2 16" stroke="#a7f3d0" stroke-width="2" fill="none" stroke-linecap="round" stroke-linejoin="round"/>
    <path d="M14 8 L10 12 L14 16" stroke="#a7f3d0" stroke-width="2" fill="none" stroke-linecap="round" stroke-linejoin="round"/>
    <rect x="7" y="10" width="2" height="2" fill="#a7f3d0" rx="0.3"/>
  </g>

  <!-- 우측 상단의 톱니(작은 설정/DevOps 상징) -->
  <g transform="translate(43,9) scale(0.9)" fill="#f8b400">
    <path d="M6.5 1.5 L8.2 3.1 L9.8 2.6 L10.2 4.5 L12.3 5.1 L11.7 7.2 L13.6 7.6 L13.1 9.2 L14.7 10.9 L13.1 12.5 L13.6 14.1 L11.7 14.5 L12.3 16.6 L10.2 17.2 L9.8 19.1 L8.2 18.6 L6.5 20.2 L5.0 18.6 L3.4 19.1 L3.0 17.2 L0.9 16.6 L1.5 14.5 L-0.4 14.1 L0.1 12.5 L-1.5 10.9 L0.1 9.2 L-0.4 7.6 L1.5 7.2 L0.9 5.1 L3.0 4.5 L3.4 2.6 L5.0 3.1 Z" transform="translate(1,0) scale(0.55)" />
    <circle cx="6" cy="6" r="2.2"/>
  </g>

  <!-- 스크린 아래의 반사 하이라이트 -->
  <ellipse cx="32" cy="47" rx="18" ry="2" fill="#020617" opacity="0.25"/>
</svg>
